<?xml version="1.0" encoding="UTF-8"?> <svg xmlns="http://www.w3.org/2000/svg" width="18" height="19" fill="none"> <g clip-path="url(#clip0)"> <path fill-rule="evenodd" clip-rule="evenodd" d="M2.297 13.39a7.845 7.845 0 0 0 10.056.873l3.555 3.556a.91.91 0 1 0 1.287-1.287l-3.483-3.483a7.844 7.844 0 1 0-11.415.341zm1.285-1.285a6.027 6.027 0 1 0 8.612-8.434 6.027 6.027 0 0 0-8.612 8.434zM4.47 4.47a.75.75 0 1 1 1.06 1.06 3.473 3.473 0 0 0-1.02 2.624 3.474 3.474 0 0 0 1.02 2.315.75.75 0 1 1-1.06 1.061 4.973 4.973 0 0 1-1.458-3.31A4.973 4.973 0 0 1 4.47 4.47z" fill="#fff"></path> </g> <defs> <clipPath id="clip0"> <path fill="#fff" d="M0 0h18v19H0z"></path> </clipPath> </defs> </svg> 